Coordinates
version=1
nRows=22
nColumns=24
inDegrees=yes

Units are S.I. units (second, meters, Newtons, ...)
Angles are in degrees.

endheader
time	pelvis_tilt	pelvis_list	pelvis_rotation	pelvis_tx	pelvis_ty	pelvis_tz	hip_flexion_r	hip_adduction_r	hip_rotation_r	knee_angle_r	ankle_angle_r	subtalar_angle_r	mtp_angle_r	hip_flexion_l	hip_adduction_l	hip_rotation_l	knee_angle_l	ankle_angle_l	subtalar_angle_l	mtp_angle_l	lumbar_extension	lumbar_bending	lumbar_rotation
      0.72483333	     -2.40064794	     -0.92308473	      0.58370832	     -0.48131713	      1.00503792	      0.32662782	     11.30553364	      4.70274792	     -0.15085551	    -18.55252642	     11.64699607	     -8.53376957	      1.53296106	     16.46254275	     -1.58530675	     -2.38600851	    -67.55607606	    -10.58613921	     -6.62982056	      8.50217729	    -11.32951598	      7.71917083	      1.64745145
      0.72900000	     -2.42396774	     -0.77500005	      0.63423438	     -0.47620261	      1.00587864	      0.32686675	     10.82877185	      4.56784152	     -0.12917451	    -18.18299848	     11.68147815	     -8.55282124	      1.52112791	     16.96777612	     -1.46405507	     -2.41877631	    -67.38496307	     -9.90373212	     -6.99701520	      8.44935396	    -11.30104354	      7.50478707	      1.71206903
      0.73316667	     -2.36098379	     -0.63482839	      0.66999224	     -0.47107498	      1.00685458	      0.32718376	     10.22011139	      4.46080673	     -0.02138042	    -17.72408821	     11.61677663	     -8.75251567	      1.47237726	     17.35900997	     -1.36576432	     -2.47206539	    -67.13852139	     -9.24140689	     -7.31237546	      8.22028951	    -11.42623975	      7.21137897	      2.09668202
      0.73733333	     -2.40815216	     -0.49089020	      0.67718877	     -0.46597425	      1.00763299	      0.32753040	      9.74999750	      4.35440601	      0.12911536	    -17.30264691	     11.52328136	     -8.97500702	      0.98069378	     17.86464666	     -1.26980612	     -2.55838152	    -66.85669404	     -8.48210653	     -7.52992362	      5.62621523	    -11.38288701	      6.95244389	      2.31695591
      0.74150000	     -2.37278607	     -0.32393109	      0.72133732	     -0.46084419	      1.00852243	      0.32770586	      9.20883830	      4.19114649	      0.11078352	    -16.92949162	     11.56013442	     -8.96022310	      0.97155646	     18.25860828	     -1.11246491	     -2.59699922	    -66.48534496	     -7.80983079	     -7.90436792	      5.61372619	    -11.44412004	      6.72211238	      2.42137318
      0.74566667	     -2.28879281	     -0.14319114	      0.73554646	     -0.45569573	      1.00948942	      0.32797126	      8.58396725	      4.03053576	      0.19383584	    -16.48669407	     11.55971676	     -9.03862811	      0.94600472	     18.57190319	     -0.95844803	     -2.67501650	    -66.02758081	     -7.19913054	     -8.18256765	      5.55822483	    -11.57962509	      6.40587961	      2.72992093
      0.74983333	     -2.30173269	      0.03771679	      0.74517243	     -0.45058514	      1.01027420	      0.32819098	      8.10018005	      3.85959539	      0.22998788	    -16.11527595	     11.52818555	     -9.07766216	      0.93176891	     18.98599195	     -0.79392659	     -2.75099848	    -65.53347403	     -6.52435357	     -8.46927942	      5.53540691	    -11.58175323	      6.14251854	      2.84579876
      0.75400000	     -2.24015921	      0.21110835	      0.74097087	     -0.44544163	      1.01116652	      0.32845578	      7.49599646	      3.70904810	      0.34596587	    -15.65801260	     11.48180823	     -9.21108626	      0.88746233	     19.29417169	     -0.64787724	     -2.84305773	    -64.96355283	     -5.90141799	     -8.69879560	      5.41680007	    -11.69589285	      5.84166223	      3.20982745
      0.75816667	     -2.24019830	      0.40726213	      0.74910072	     -0.44033116	      1.01193388	      0.32863679	      6.99955128	      3.51623556	      0.36445948	    -15.28622822	     11.44559096	     -9.24222723	      0.87144414	     19.66009658	     -0.45812837	     -2.91903391	    -64.34156892	     -5.24736255	     -8.92427977	      5.38441988	    -11.71028053	      5.55494620	      3.28940355
      0.76233333	     -2.16216084	      0.59579096	      0.74526270	     -0.43518409	      1.01280525	      0.32885165	      6.38208532	      3.34036376	      0.44376456	    -14.83759538	     11.41801964	     -9.33686600	      0.83684421	     19.91295141	     -0.28386226	     -3.00305467	    -63.64075289	     -4.64649477	     -9.08145199	      5.28507124	    -11.83065983	      5.25394722	      3.56992138
      0.76650000	     -2.15091239	      0.79204553	      0.73689844	     -0.43007216	      1.01353199	      0.32902210	      5.87095805	      3.14708161	      0.48285470	    -14.45692239	     11.37155306	     -9.39064252	      0.80516371	     20.22850483	     -0.08842652	     -3.08017567	    -62.89528421	     -4.02051029	     -9.24182998	      5.18833510	    -11.86248555	      4.98008781	      3.75678931
      0.77066667	     -2.11002408	      0.95711470	      0.73429879	     -0.42495899	      1.01426420	      0.32919248	      5.31093328	      2.98905024	      0.53090982	    -14.03695700	     11.32139103	     -9.44667185	      0.76691034	     20.50156231	      0.07215625	     -3.14779112	    -62.10706986	     -3.40129290	     -9.36933738	      5.06016748	    -11.94211806	      4.71288645	      3.96246587
      0.77483333	     -2.08679439	      1.13862591	      0.72273655	     -0.41985159	      1.01495027	      0.32933278	      4.78248608	      2.80820948	      0.57046627	    -13.64292805	     11.26682076	     -9.48964449	      0.72498024	     20.77087001	      0.25954665	     -3.21262302	    -61.25077084	     -2.79717691	     -9.48040773	      4.90585995	    -11.99518952	      4.45132515	      4.15484375
      0.77900000	     -2.05560342	      1.31707049	      0.70840552	     -0.41476131	      1.01560398	      0.32944814	      4.25489139	      2.62701386	      0.59328838	    -13.26395774	     11.19910798	     -9.50855755	      0.67037455	     21.01613695	      0.44938307	     -3.27398834	    -60.34320245	     -2.18913636	     -9.57989712	      4.68233785	    -12.06500802	      4.19971532	      4.34813666
      0.78316667	     -2.03869613	      1.49729139	      0.70832008	     -0.40965997	      1.01621805	      0.32954164	      3.73983144	      2.44141565	      0.59710867	    -12.88284666	     11.15798924	     -9.53505966	      0.63677435	     21.25982080	      0.65075547	     -3.31036276	    -59.37556713	     -1.64279809	     -9.61561066	      4.54384640	    -12.09927394	      3.94120510	      4.46579221
      0.78733333	     -2.02951084	      1.66077569	      0.69834625	     -0.40457237	      1.01676936	      0.32962650	      3.24132044	      2.27237467	      0.60815750	    -12.51537192	     11.09684031	     -9.54951433	      0.60438646	     21.49653872	      0.83673828	     -3.34398770	    -58.36382877	     -1.09059080	     -9.64245584	      4.40361326	    -12.13171828	      3.70932229	      4.61701654
      0.79150000	     -2.06285520	      1.83077001	      0.68634293	     -0.39951460	      1.01722364	      0.32966093	      2.81504988	      2.08911826	      0.59633133	    -12.19968094	     11.01188319	     -9.53747188	      0.58541235	     21.76304558	      1.04525175	     -3.35699071	    -57.29876689	     -0.56009359	     -9.67511730	      4.32636360	    -12.11573363	      3.49479613	      4.70576403
      0.79566667	     -1.99339840	      1.98832651	      0.67693460	     -0.39441279	      1.01779586	      0.32972032	      2.23873717	      1.92417079	      0.60666695	    -11.80449665	     10.97691109	     -9.53560486	      0.55484568	     21.89347824	      1.23353635	     -3.37053738	    -56.17313881	     -0.07568348	     -9.66217962	      4.16487861	    -12.22849566	      3.26442734	      4.89602105
      0.79983333	     -1.97503330	      2.13568168	      0.66396012	     -0.38933842	      1.01825971	      0.32974466	      1.73943797	      1.76587017	      0.61436651	    -11.45143596	     10.90168513	     -9.53373579	      0.52214398	     22.06423737	      1.42404940	     -3.36097156	    -55.00162601	      0.39300889	     -9.64366701	      3.97835977	    -12.28261221	      3.06121392	      5.04315096
      0.80400000	     -1.97003215	      2.27243560	      0.65523661	     -0.38425967	      1.01866469	      0.32975464	      1.25931384	      1.61740613	      0.61020365	    -11.10928851	     10.82985371	     -9.53203497	      0.49340821	     22.23313129	      1.60678503	     -3.34041447	    -53.78333386	      0.82101574	     -9.60547639	      3.80688509	    -12.30872941	      2.87458680	      5.16203533
      0.80816667	     -1.96992528	      2.41065143	      0.64418903	     -0.37918307	      1.01902625	      0.32974383	      0.79211639	      1.46399857	      0.59929934	    -10.78203636	     10.76290807	     -9.51446421	      0.46945796	     22.38702964	      1.79836399	     -3.30592276	    -52.51180738	      1.21298244	     -9.56153100	      3.65114213	    -12.33198496	      2.69281246	      5.27313362
      0.81233333	     -1.93851526	      2.54077550	      0.62902282	     -0.37411047	      1.01939975	      0.32972814	      0.28947131	      1.31915392	      0.60322950	    -10.44913943	     10.68866249	     -9.48330074	      0.44492664	     22.48528396	      1.98756779	     -3.25254479	    -51.18597937	      1.57052473	     -9.52349805	      3.47510087	    -12.40527798	      2.52141662	      5.39059200
